<svg width="21" height="21" viewBox="0 0 21 21" fill="none" xmlns="http://www.w3.org/2000/svg">
<path d="M18.8446 17.8953C18.8446 18.8698 18.0527 19.6915 17.0783 19.6915H2.94426C1.96985 19.6915 1.17793 18.8698 1.17793 17.8953V3.76134C1.17793 2.78693 1.96985 2.02376 2.94426 2.02376H11.1886V0.846943H2.94426C1.3206 0.846943 0 2.13879 0 3.76245V17.8953C0 19.519 1.3206 20.8684 2.94426 20.8684H17.0772C18.7008 20.8684 20.0214 19.5179 20.0214 17.8953V9.67972H18.8435V17.8953H18.8446Z" fill="#828282"/>
<path d="M20.1719 0.667768C19.2826 -0.222589 17.7309 -0.222589 16.8405 0.667768L8.94011 8.56816C8.8649 8.64337 8.81071 8.73849 8.78527 8.84135L7.95353 12.1716C7.90376 12.3718 7.96238 12.5842 8.10837 12.7313C8.22008 12.843 8.37051 12.9038 8.52424 12.9038C8.5718 12.9038 8.61936 12.8983 8.66692 12.8861L11.9983 12.0533C12.1023 12.0278 12.1963 11.9736 12.2715 11.8984L20.1719 3.99803C20.6165 3.55341 20.862 2.96168 20.862 2.33235C20.862 1.70301 20.6176 1.11239 20.1719 0.667768ZM11.5548 10.9506L9.33386 11.5058L9.88909 9.28487L16.4246 2.74932L18.0903 4.41501L11.5548 10.9506ZM19.339 3.16519L18.9232 3.58106L17.2575 1.91537L17.6734 1.4995C18.118 1.05488 18.8944 1.05488 19.339 1.4995C19.5613 1.72182 19.6841 2.01713 19.6841 2.33235C19.6841 2.64757 19.5613 2.94288 19.339 3.16519Z" fill="#828282"/>
</svg>
