<svg width="153" height="19" viewBox="0 0 153 19" fill="none" xmlns="http://www.w3.org/2000/svg">
<path d="M0.864 11.712C0.864 10.832 1.016 10 1.32 9.216C1.624 8.432 2.056 7.752 2.616 7.176C3.176 6.584 3.84 6.12 4.608 5.784C5.392 5.432 6.264 5.256 7.224 5.256C8.472 5.256 9.544 5.536 10.44 6.096C11.352 6.64 12.04 7.376 12.504 8.304L10.44 8.952C10.12 8.36 9.672 7.904 9.096 7.584C8.52 7.248 7.88 7.08 7.176 7.08C6.6 7.08 6.056 7.2 5.544 7.44C5.032 7.664 4.592 7.984 4.224 8.4C3.856 8.816 3.56 9.304 3.336 9.864C3.128 10.424 3.024 11.04 3.024 11.712C3.024 12.368 3.136 12.984 3.36 13.56C3.584 14.136 3.88 14.64 4.248 15.072C4.632 15.488 5.072 15.816 5.568 16.056C6.08 16.296 6.624 16.416 7.2 16.416C7.568 16.416 7.928 16.368 8.28 16.272C8.648 16.16 8.976 16.016 9.264 15.84C9.568 15.664 9.832 15.464 10.056 15.24C10.28 15 10.44 14.744 10.536 14.472L12.6 15.096C12.408 15.56 12.136 15.984 11.784 16.368C11.448 16.752 11.048 17.08 10.584 17.352C10.12 17.624 9.6 17.84 9.024 18C8.464 18.16 7.872 18.24 7.248 18.24C6.304 18.24 5.44 18.064 4.656 17.712C3.872 17.36 3.2 16.888 2.64 16.296C2.08 15.704 1.64 15.016 1.32 14.232C1.016 13.432 0.864 12.592 0.864 11.712ZM20.3479 18.24C19.4039 18.24 18.5399 18.064 17.7559 17.712C16.9879 17.36 16.3239 16.888 15.7639 16.296C15.2199 15.704 14.7959 15.016 14.4919 14.232C14.1879 13.448 14.0359 12.624 14.0359 11.76C14.0359 10.88 14.1879 10.048 14.4919 9.264C14.8119 8.48 15.2439 7.792 15.7879 7.2C16.3479 6.608 17.0119 6.136 17.7799 5.784C18.5639 5.432 19.4199 5.256 20.3479 5.256C21.2759 5.256 22.1319 5.432 22.9159 5.784C23.6999 6.136 24.3639 6.608 24.9079 7.2C25.4679 7.792 25.8999 8.48 26.2039 9.264C26.5239 10.048 26.6839 10.88 26.6839 11.76C26.6839 12.624 26.5319 13.448 26.2279 14.232C25.9239 15.016 25.4919 15.704 24.9319 16.296C24.3719 16.888 23.6999 17.36 22.9159 17.712C22.1479 18.064 21.2919 18.24 20.3479 18.24ZM16.1959 11.784C16.1959 12.44 16.2999 13.048 16.5079 13.608C16.7319 14.168 17.0279 14.656 17.3959 15.072C17.7799 15.488 18.2199 15.816 18.7159 16.056C19.2279 16.296 19.7719 16.416 20.3479 16.416C20.9239 16.416 21.4599 16.296 21.9559 16.056C22.4679 15.816 22.9159 15.488 23.2999 15.072C23.6839 14.64 23.9799 14.144 24.1879 13.584C24.4119 13.008 24.5239 12.392 24.5239 11.736C24.5239 11.096 24.4119 10.496 24.1879 9.936C23.9799 9.36 23.6839 8.864 23.2999 8.448C22.9159 8.016 22.4679 7.68 21.9559 7.44C21.4599 7.2 20.9239 7.08 20.3479 7.08C19.7719 7.08 19.2279 7.208 18.7159 7.464C18.2199 7.704 17.7799 8.04 17.3959 8.472C17.0279 8.888 16.7319 9.384 16.5079 9.96C16.2999 10.52 16.1959 11.128 16.1959 11.784ZM48.1311 18H46.0191V10.992C46.0191 9.68 45.8031 8.712 45.3711 8.088C44.9551 7.464 44.3311 7.152 43.4991 7.152C42.6351 7.152 41.8591 7.464 41.1711 8.088C40.4991 8.696 40.0191 9.488 39.7311 10.464V18H37.6191V10.992C37.6191 9.648 37.4111 8.672 36.9951 8.064C36.5791 7.456 35.9551 7.152 35.1231 7.152C34.2751 7.152 33.5071 7.456 32.8191 8.064C32.1311 8.656 31.6431 9.448 31.3551 10.44V18H29.2431V5.472H31.1631V8.16C31.6751 7.232 32.3391 6.52 33.1551 6.024C33.9711 5.512 34.8911 5.256 35.9151 5.256C36.9711 5.256 37.8031 5.544 38.4111 6.12C39.0351 6.68 39.4191 7.408 39.5631 8.304C40.6831 6.272 42.2751 5.256 44.3391 5.256C45.0591 5.256 45.6591 5.392 46.1391 5.664C46.6351 5.92 47.0271 6.288 47.3151 6.768C47.6031 7.232 47.8111 7.784 47.9391 8.424C48.0671 9.064 48.1311 9.76 48.1311 10.512V18ZM56.9589 18.24C56.0149 18.24 55.1509 18.072 54.3669 17.736C53.5829 17.384 52.9109 16.912 52.3509 16.32C51.7909 15.728 51.3509 15.04 51.0309 14.256C50.7269 13.456 50.5749 12.616 50.5749 11.736C50.5749 10.856 50.7269 10.024 51.0309 9.24C51.3509 8.456 51.7909 7.768 52.3509 7.176C52.9269 6.584 53.6069 6.12 54.3909 5.784C55.1749 5.432 56.0389 5.256 56.9829 5.256C57.9269 5.256 58.7829 5.432 59.5509 5.784C60.3349 6.136 60.9989 6.608 61.5429 7.2C62.0869 7.776 62.5029 8.456 62.7909 9.24C63.0949 10.008 63.2469 10.808 63.2469 11.64C63.2469 11.816 63.2389 11.976 63.2229 12.12C63.2229 12.264 63.2149 12.376 63.1989 12.456H52.8069C52.8549 13.08 52.9989 13.648 53.2389 14.16C53.4789 14.672 53.7909 15.112 54.1749 15.48C54.5589 15.848 54.9909 16.136 55.4709 16.344C55.9669 16.552 56.4869 16.656 57.0309 16.656C57.4149 16.656 57.7909 16.608 58.1589 16.512C58.5269 16.4 58.8709 16.256 59.1909 16.08C59.5109 15.904 59.7909 15.688 60.0309 15.432C60.2869 15.176 60.4789 14.888 60.6069 14.568L62.4309 15.072C62.2229 15.536 61.9349 15.96 61.5669 16.344C61.2149 16.728 60.7989 17.064 60.3189 17.352C59.8549 17.624 59.3349 17.84 58.7589 18C58.1829 18.16 57.5829 18.24 56.9589 18.24ZM61.2549 10.896C61.2069 10.304 61.0549 9.76 60.7989 9.264C60.5589 8.752 60.2469 8.32 59.8629 7.968C59.4949 7.616 59.0629 7.344 58.5669 7.152C58.0709 6.944 57.5429 6.84 56.9829 6.84C56.4229 6.84 55.8949 6.944 55.3989 7.152C54.9029 7.344 54.4629 7.624 54.0789 7.992C53.7109 8.344 53.4069 8.768 53.1669 9.264C52.9429 9.76 52.8069 10.304 52.7589 10.896H61.2549ZM72.2186 7.32C71.1626 7.352 70.2266 7.624 69.4106 8.136C68.6106 8.648 68.0426 9.36 67.7066 10.272V18H65.5946V5.472H67.5626V8.376C67.9946 7.512 68.5626 6.816 69.2666 6.288C69.9706 5.744 70.7226 5.44 71.5226 5.376C71.6826 5.376 71.8186 5.376 71.9306 5.376C72.0426 5.376 72.1386 5.384 72.2186 5.4V7.32ZM74.3134 18V5.472H76.4254V18H74.3134ZM74.3134 3.12V0.48H76.4254V3.12H74.3134ZM85.3886 18.24C84.4446 18.24 83.5806 18.072 82.7966 17.736C82.0126 17.384 81.3406 16.912 80.7806 16.32C80.2206 15.728 79.7806 15.04 79.4606 14.256C79.1566 13.456 79.0046 12.616 79.0046 11.736C79.0046 10.856 79.1566 10.024 79.4606 9.24C79.7806 8.456 80.2206 7.768 80.7806 7.176C81.3566 6.584 82.0366 6.12 82.8206 5.784C83.6046 5.432 84.4686 5.256 85.4126 5.256C86.3566 5.256 87.2126 5.432 87.9806 5.784C88.7646 6.136 89.4286 6.608 89.9726 7.2C90.5166 7.776 90.9326 8.456 91.2206 9.24C91.5246 10.008 91.6766 10.808 91.6766 11.64C91.6766 11.816 91.6686 11.976 91.6526 12.12C91.6526 12.264 91.6446 12.376 91.6286 12.456H81.2366C81.2846 13.08 81.4286 13.648 81.6686 14.16C81.9086 14.672 82.2206 15.112 82.6046 15.48C82.9886 15.848 83.4206 16.136 83.9006 16.344C84.3966 16.552 84.9166 16.656 85.4606 16.656C85.8446 16.656 86.2206 16.608 86.5886 16.512C86.9566 16.4 87.3006 16.256 87.6206 16.08C87.9406 15.904 88.2206 15.688 88.4606 15.432C88.7166 15.176 88.9086 14.888 89.0366 14.568L90.8606 15.072C90.6526 15.536 90.3646 15.96 89.9966 16.344C89.6446 16.728 89.2286 17.064 88.7486 17.352C88.2846 17.624 87.7646 17.84 87.1886 18C86.6126 18.16 86.0126 18.24 85.3886 18.24ZM89.6846 10.896C89.6366 10.304 89.4846 9.76 89.2286 9.264C88.9886 8.752 88.6766 8.32 88.2926 7.968C87.9246 7.616 87.4926 7.344 86.9966 7.152C86.5006 6.944 85.9726 6.84 85.4126 6.84C84.8526 6.84 84.3246 6.944 83.8286 7.152C83.3326 7.344 82.8926 7.624 82.5086 7.992C82.1406 8.344 81.8366 8.768 81.5966 9.264C81.3726 9.76 81.2366 10.304 81.1886 10.896H89.6846ZM100.648 7.32C99.5923 7.352 98.6563 7.624 97.8403 8.136C97.0403 8.648 96.4723 9.36 96.1363 10.272V18H94.0243V5.472H95.9923V8.376C96.4243 7.512 96.9923 6.816 97.6963 6.288C98.4003 5.744 99.1523 5.44 99.9523 5.376C100.112 5.376 100.248 5.376 100.36 5.376C100.472 5.376 100.568 5.384 100.648 5.4V7.32ZM101.474 18V15.312H103.25V18H101.474ZM105.653 11.712C105.653 10.832 105.805 10 106.109 9.216C106.413 8.432 106.845 7.752 107.405 7.176C107.965 6.584 108.629 6.12 109.397 5.784C110.181 5.432 111.053 5.256 112.013 5.256C113.261 5.256 114.333 5.536 115.229 6.096C116.141 6.64 116.829 7.376 117.293 8.304L115.229 8.952C114.909 8.36 114.461 7.904 113.885 7.584C113.309 7.248 112.669 7.08 111.965 7.08C111.389 7.08 110.845 7.2 110.333 7.44C109.821 7.664 109.381 7.984 109.013 8.4C108.645 8.816 108.349 9.304 108.125 9.864C107.917 10.424 107.813 11.04 107.813 11.712C107.813 12.368 107.925 12.984 108.149 13.56C108.373 14.136 108.669 14.64 109.037 15.072C109.421 15.488 109.861 15.816 110.357 16.056C110.869 16.296 111.413 16.416 111.989 16.416C112.357 16.416 112.717 16.368 113.069 16.272C113.437 16.16 113.765 16.016 114.053 15.84C114.357 15.664 114.621 15.464 114.845 15.24C115.069 15 115.229 14.744 115.325 14.472L117.389 15.096C117.197 15.56 116.925 15.984 116.573 16.368C116.237 16.752 115.837 17.08 115.373 17.352C114.909 17.624 114.389 17.84 113.813 18C113.253 18.16 112.661 18.24 112.037 18.24C111.093 18.24 110.229 18.064 109.445 17.712C108.661 17.36 107.989 16.888 107.429 16.296C106.869 15.704 106.429 15.016 106.109 14.232C105.805 13.432 105.653 12.592 105.653 11.712ZM125.137 18.24C124.193 18.24 123.329 18.064 122.545 17.712C121.777 17.36 121.113 16.888 120.553 16.296C120.009 15.704 119.585 15.016 119.281 14.232C118.977 13.448 118.825 12.624 118.825 11.76C118.825 10.88 118.977 10.048 119.281 9.264C119.601 8.48 120.033 7.792 120.577 7.2C121.137 6.608 121.801 6.136 122.569 5.784C123.353 5.432 124.209 5.256 125.137 5.256C126.065 5.256 126.921 5.432 127.705 5.784C128.489 6.136 129.153 6.608 129.697 7.2C130.257 7.792 130.689 8.48 130.993 9.264C131.313 10.048 131.473 10.88 131.473 11.76C131.473 12.624 131.321 13.448 131.017 14.232C130.713 15.016 130.281 15.704 129.721 16.296C129.161 16.888 128.489 17.36 127.705 17.712C126.937 18.064 126.081 18.24 125.137 18.24ZM120.985 11.784C120.985 12.44 121.089 13.048 121.297 13.608C121.521 14.168 121.817 14.656 122.185 15.072C122.569 15.488 123.009 15.816 123.505 16.056C124.017 16.296 124.561 16.416 125.137 16.416C125.713 16.416 126.249 16.296 126.745 16.056C127.257 15.816 127.705 15.488 128.089 15.072C128.473 14.64 128.769 14.144 128.977 13.584C129.201 13.008 129.313 12.392 129.313 11.736C129.313 11.096 129.201 10.496 128.977 9.936C128.769 9.36 128.473 8.864 128.089 8.448C127.705 8.016 127.257 7.68 126.745 7.44C126.249 7.2 125.713 7.08 125.137 7.08C124.561 7.08 124.017 7.208 123.505 7.464C123.009 7.704 122.569 8.04 122.185 8.472C121.817 8.888 121.521 9.384 121.297 9.96C121.089 10.52 120.985 11.128 120.985 11.784ZM152.92 18H150.808V10.992C150.808 9.68 150.592 8.712 150.16 8.088C149.744 7.464 149.12 7.152 148.288 7.152C147.424 7.152 146.648 7.464 145.96 8.088C145.288 8.696 144.808 9.488 144.52 10.464V18H142.408V10.992C142.408 9.648 142.2 8.672 141.784 8.064C141.368 7.456 140.744 7.152 139.912 7.152C139.064 7.152 138.296 7.456 137.608 8.064C136.92 8.656 136.432 9.448 136.144 10.44V18H134.032V5.472H135.952V8.16C136.464 7.232 137.128 6.52 137.944 6.024C138.76 5.512 139.68 5.256 140.704 5.256C141.76 5.256 142.592 5.544 143.2 6.12C143.824 6.68 144.208 7.408 144.352 8.304C145.472 6.272 147.064 5.256 149.128 5.256C149.848 5.256 150.448 5.392 150.928 5.664C151.424 5.92 151.816 6.288 152.104 6.768C152.392 7.232 152.6 7.784 152.728 8.424C152.856 9.064 152.92 9.76 152.92 10.512V18Z" fill="#029E74"/>
</svg>
